<svg width="32" height="32" viewBox="0 0 32 32" fill="none" xmlns="http://www.w3.org/2000/svg">
<path d="M26.6673 28V25.3333C26.6673 23.9188 26.1054 22.5623 25.1052 21.5621C24.105 20.5619 22.7485 20 21.334 20H10.6673C9.25283 20 7.89628 20.5619 6.89608 21.5621C5.89589 22.5623 5.33398 23.9188 5.33398 25.3333V28" stroke="url(#paint0_linear_168_594)" stroke-width="3.00312" stroke-linecap="round" stroke-linejoin="round"/>
<path d="M15.9993 14.6667C18.9449 14.6667 21.3327 12.2789 21.3327 9.33333C21.3327 6.38781 18.9449 4 15.9993 4C13.0538 4 10.666 6.38781 10.666 9.33333C10.666 12.2789 13.0538 14.6667 15.9993 14.6667Z" stroke="url(#paint1_linear_168_594)" stroke-width="3.00312" stroke-linecap="round" stroke-linejoin="round"/>
<defs>
<linearGradient id="paint0_linear_168_594" x1="25.4366" y1="20.8333" x2="22.8955" y2="30.2678" gradientUnits="userSpaceOnUse">
<stop stop-color="#94C6C5"/>
<stop offset="1" stop-color="#114183"/>
</linearGradient>
<linearGradient id="paint1_linear_168_594" x1="20.7173" y1="5.11111" x2="14.3247" y2="14.0115" gradientUnits="userSpaceOnUse">
<stop stop-color="#94C6C5"/>
<stop offset="1" stop-color="#114183"/>
</linearGradient>
</defs>
</svg>
