<svg width="36" height="36" viewBox="0 0 36 36" fill="none" xmlns="http://www.w3.org/2000/svg">
<path d="M28.5 9V30C28.5 30.7956 28.1839 31.5587 27.6213 32.1213C27.0587 32.6839 26.2956 33 25.5 33H10.5C9.70435 33 8.94129 32.6839 8.37868 32.1213C7.81607 31.5587 7.5 30.7956 7.5 30V9M12 9V6C12 5.20435 12.3161 4.44129 12.8787 3.87868C13.4413 3.31607 14.2044 3 15 3H21C21.7956 3 22.5587 3.31607 23.1213 3.87868C23.6839 4.44129 24 5.20435 24 6V9" stroke="url(#paint0_linear_397_1501)" stroke-width="3" stroke-linecap="round" stroke-linejoin="round"/>
<path d="M4.5 9H7.5H31.5" stroke="url(#paint1_linear_397_1501)" stroke-width="3" stroke-linecap="round" stroke-linejoin="round"/>
<path d="M15 16.5V25.5" stroke="url(#paint2_linear_397_1501)" stroke-width="3" stroke-linecap="round" stroke-linejoin="round"/>
<path d="M21 16.5V25.5" stroke="url(#paint3_linear_397_1501)" stroke-width="3" stroke-linecap="round" stroke-linejoin="round"/>
<defs>
<linearGradient id="paint0_linear_397_1501" x1="27.2885" y1="6.125" x2="8.32192" y2="24.6098" gradientUnits="userSpaceOnUse">
<stop stop-color="#94C6C5"/>
<stop offset="1" stop-color="#114183"/>
</linearGradient>
<linearGradient id="paint1_linear_397_1501" x1="29.9423" y1="9.10417" x2="29.9087" y2="10.3681" gradientUnits="userSpaceOnUse">
<stop stop-color="#94C6C5"/>
<stop offset="1" stop-color="#114183"/>
</linearGradient>
<linearGradient id="paint2_linear_397_1501" x1="15.9423" y1="17.4375" x2="14.2224" y2="17.7036" gradientUnits="userSpaceOnUse">
<stop stop-color="#94C6C5"/>
<stop offset="1" stop-color="#114183"/>
</linearGradient>
<linearGradient id="paint3_linear_397_1501" x1="21.9423" y1="17.4375" x2="20.2224" y2="17.7036" gradientUnits="userSpaceOnUse">
<stop stop-color="#94C6C5"/>
<stop offset="1" stop-color="#114183"/>
</linearGradient>
</defs>
</svg>
