<svg width="128" height="128" viewBox="0 0 128 128" fill="none" xmlns="http://www.w3.org/2000/svg">
<circle cx="64" cy="64" r="64" fill="#0F141F"/>
<path fill-rule="evenodd" clip-rule="evenodd" d="M79 34H49C40.7157 34 34 40.7157 34 49V79C34 87.2843 40.7157 94 49 94H79C87.2843 94 94 87.2843 94 79V49C94 40.7157 87.2843 34 79 34ZM78.8377 61.7997C79.3005 64.9207 78.7675 68.1081 77.3143 70.9085C75.8612 73.709 73.562 75.98 70.7438 77.3985C67.9256 78.817 64.7319 79.3107 61.617 78.8095C58.502 78.3082 55.6244 76.8375 53.3934 74.6066C51.1625 72.3756 49.6918 69.498 49.1905 66.383C48.6893 63.2681 49.183 60.0744 50.6015 57.2562C52.02 54.438 54.291 52.1388 57.0915 50.6857C59.8919 49.2325 63.0793 48.6995 66.2003 49.1623C69.3837 49.6343 72.3309 51.1178 74.6066 53.3934C76.8823 55.6691 78.3657 58.6163 78.8377 61.7997ZM83.5 52C85.9853 52 88 49.9853 88 47.5C88 45.0147 85.9853 43 83.5 43C81.0147 43 79 45.0147 79 47.5C79 49.9853 81.0147 52 83.5 52Z" fill="url(#paint0_linear_374_3698)"/>
<path d="M77.3143 70.9085L77.7581 71.1388L77.7581 71.1388L77.3143 70.9085ZM78.8377 61.7997L79.3323 61.7264L79.3323 61.7264L78.8377 61.7997ZM70.7438 77.3985L70.9686 77.8451L70.9686 77.8451L70.7438 77.3985ZM61.617 78.8095L61.5375 79.3031L61.5375 79.3031L61.617 78.8095ZM53.3934 74.6066L53.0399 74.9601L53.0399 74.9601L53.3934 74.6066ZM49.1905 66.383L49.6842 66.3036L49.6842 66.3036L49.1905 66.383ZM50.6015 57.2562L50.1549 57.0314L50.1549 57.0314L50.6015 57.2562ZM57.0915 50.6857L57.3217 51.1295L57.0915 50.6857ZM66.2003 49.1623L66.1269 49.6569L66.1269 49.6569L66.2003 49.1623ZM74.6066 53.3934L74.9601 53.0399L74.9601 53.0399L74.6066 53.3934ZM49 34.5H79V33.5H49V34.5ZM34.5 49C34.5 40.9919 40.9919 34.5 49 34.5V33.5C40.4396 33.5 33.5 40.4396 33.5 49H34.5ZM34.5 79V49H33.5V79H34.5ZM49 93.5C40.9919 93.5 34.5 87.0081 34.5 79H33.5C33.5 87.5604 40.4396 94.5 49 94.5V93.5ZM79 93.5H49V94.5H79V93.5ZM93.5 79C93.5 87.0081 87.0081 93.5 79 93.5V94.5C87.5604 94.5 94.5 87.5604 94.5 79H93.5ZM93.5 49V79H94.5V49H93.5ZM79 34.5C87.0081 34.5 93.5 40.9919 93.5 49H94.5C94.5 40.4396 87.5604 33.5 79 33.5V34.5ZM77.7581 71.1388C79.2597 68.245 79.8105 64.9514 79.3323 61.7264L78.3431 61.8731C78.7905 64.89 78.2752 67.9711 76.8705 70.6783L77.7581 71.1388ZM70.9686 77.8451C73.8808 76.3794 76.2566 74.0327 77.7581 71.1388L76.8705 70.6783C75.4658 73.3854 73.2433 75.5807 70.519 76.9519L70.9686 77.8451ZM61.5375 79.3031C64.7563 79.8211 68.0565 79.3109 70.9686 77.8451L70.519 76.9519C67.7948 78.3231 64.7075 78.8004 61.6964 78.3158L61.5375 79.3031ZM53.0399 74.9601C55.3452 77.2655 58.3187 78.7852 61.5375 79.3031L61.6964 78.3158C58.6852 77.8313 55.9036 76.4096 53.747 74.253L53.0399 74.9601ZM48.6969 66.4625C49.2148 69.6813 50.7345 72.6548 53.0399 74.9601L53.747 74.253C51.5904 72.0964 50.1687 69.3148 49.6842 66.3036L48.6969 66.4625ZM50.1549 57.0314C48.6891 59.9435 48.1789 63.2437 48.6969 66.4625L49.6842 66.3036C49.1996 63.2925 49.6769 60.2052 51.0481 57.481L50.1549 57.0314ZM56.8612 50.2419C53.9673 51.7434 51.6206 54.1192 50.1549 57.0314L51.0481 57.481C52.4193 54.7567 54.6146 52.5342 57.3217 51.1295L56.8612 50.2419ZM66.2736 48.6677C63.0486 48.1895 59.755 48.7403 56.8612 50.2419L57.3217 51.1295C60.0289 49.7248 63.11 49.2095 66.1269 49.6569L66.2736 48.6677ZM74.9601 53.0399C72.6086 50.6883 69.5632 49.1555 66.2736 48.6677L66.1269 49.6569C69.2043 50.1132 72.0532 51.5472 74.253 53.747L74.9601 53.0399ZM79.3323 61.7264C78.8445 58.4368 77.3117 55.3914 74.9601 53.0399L74.253 53.747C76.4528 55.9468 77.8868 58.7957 78.3431 61.8731L79.3323 61.7264ZM87.5 47.5C87.5 49.7091 85.7091 51.5 83.5 51.5V52.5C86.2614 52.5 88.5 50.2614 88.5 47.5H87.5ZM83.5 43.5C85.7091 43.5 87.5 45.2909 87.5 47.5H88.5C88.5 44.7386 86.2614 42.5 83.5 42.5V43.5ZM79.5 47.5C79.5 45.2909 81.2909 43.5 83.5 43.5V42.5C80.7386 42.5 78.5 44.7386 78.5 47.5H79.5ZM83.5 51.5C81.2909 51.5 79.5 49.7091 79.5 47.5H78.5C78.5 50.2614 80.7386 52.5 83.5 52.5V51.5Z" fill="url(#paint1_linear_374_3698)"/>
<defs>
<linearGradient id="paint0_linear_374_3698" x1="93.0357" y1="34" x2="38.4429" y2="96.0245" gradientUnits="userSpaceOnUse">
<stop stop-color="#94C6C5"/>
<stop offset="1" stop-color="#114183"/>
</linearGradient>
<linearGradient id="paint1_linear_374_3698" x1="90.5385" y1="40.25" x2="54.5801" y2="90.3144" gradientUnits="userSpaceOnUse">
<stop stop-color="#94C6C5"/>
<stop offset="1" stop-color="#114183"/>
</linearGradient>
</defs>
</svg>
