<svg width="128" height="128" viewBox="0 0 128 128" fill="none" xmlns="http://www.w3.org/2000/svg">
<g clip-path="url(#clip0_93_759)">
<circle cx="64" cy="64" r="64" fill="#0F141F"/>
<path d="M62.4784 30.2831C62.9574 28.809 65.0428 28.809 65.5218 30.2831L72.2622 51.028C72.4764 51.6873 73.0907 52.1336 73.7839 52.1336H95.5964C97.1463 52.1336 97.7908 54.117 96.5368 55.028L78.8902 67.8491C78.3294 68.2565 78.0947 68.9787 78.3089 69.6379L85.0494 90.3828C85.5283 91.8569 83.8412 93.0827 82.5872 92.1717L64.9406 79.3506C64.3798 78.9432 63.6204 78.9432 63.0596 79.3506L45.413 92.1717C44.159 93.0827 42.4719 91.8569 42.9508 90.3828L49.6913 69.6379C49.9055 68.9787 49.6708 68.2565 49.11 67.8491L31.4634 55.028C30.2094 54.117 30.8539 52.1336 32.4038 52.1336H54.2163C54.9095 52.1336 55.5238 51.6873 55.738 51.028L62.4784 30.2831Z" fill="url(#paint0_linear_93_759)"/>
</g>
<defs>
<linearGradient id="paint0_linear_93_759" x1="97.9693" y1="33.5999" x2="51.9426" y2="97.6823" gradientUnits="userSpaceOnUse">
<stop stop-color="#94C6C5"/>
<stop offset="1" stop-color="#114183"/>
</linearGradient>
<clipPath id="clip0_93_759">
<rect width="128" height="128" fill="white"/>
</clipPath>
</defs>
</svg>
