<svg width="36" height="37" viewBox="0 0 36 37" fill="none" xmlns="http://www.w3.org/2000/svg">
<path d="M31.2602 7.14918C30.494 6.38269 29.5844 5.77465 28.5832 5.35981C27.582 4.94497 26.5089 4.73145 25.4252 4.73145C24.3414 4.73145 23.2683 4.94497 22.2671 5.35981C21.266 5.77465 20.3563 6.38269 19.5902 7.14918L18.0002 8.73918L16.4102 7.14918C14.8626 5.60165 12.7637 4.73225 10.5752 4.73225C8.38663 4.73225 6.28772 5.60165 4.74018 7.14918C3.19264 8.69672 2.32324 10.7956 2.32324 12.9842C2.32324 15.1727 3.19264 17.2716 4.74018 18.8192L6.33018 20.4092L18.0002 32.0792L29.6702 20.4092L31.2602 18.8192C32.0267 18.053 32.6347 17.1434 33.0496 16.1422C33.4644 15.141 33.6779 14.0679 33.6779 12.9842C33.6779 11.9005 33.4644 10.8273 33.0496 9.82615C32.6347 8.82496 32.0267 7.91532 31.2602 7.14918V7.14918Z" stroke="url(#paint0_linear_3_444)" stroke-width="3.00312" stroke-linecap="round" stroke-linejoin="round"/>
<defs>
<linearGradient id="paint0_linear_3_444" x1="31.869" y1="7.58017" x2="16.3067" y2="32.422" gradientUnits="userSpaceOnUse">
<stop stop-color="#94C6C5"/>
<stop offset="1" stop-color="#114183"/>
</linearGradient>
</defs>
</svg>
