<svg width="24" height="24" viewBox="0 0 24 24" fill="none" xmlns="http://www.w3.org/2000/svg">
<g clip-path="url(#clip0_233_608)">
<path d="M12 17C14.7614 17 17 14.7614 17 12C17 9.23858 14.7614 7 12 7C9.23858 7 7 9.23858 7 12C7 14.7614 9.23858 17 12 17Z" stroke="url(#paint0_linear_233_608)" stroke-width="2" stroke-linecap="round" stroke-linejoin="round"/>
<path d="M12 1V3" stroke="url(#paint1_linear_233_608)" stroke-width="2" stroke-linecap="round" stroke-linejoin="round"/>
<path d="M12 21V23" stroke="url(#paint2_linear_233_608)" stroke-width="2" stroke-linecap="round" stroke-linejoin="round"/>
<path d="M4.2207 4.22L5.6407 5.64" stroke="url(#paint3_linear_233_608)" stroke-width="2" stroke-linecap="round" stroke-linejoin="round"/>
<path d="M18.3594 18.36L19.7794 19.78" stroke="url(#paint4_linear_233_608)" stroke-width="2" stroke-linecap="round" stroke-linejoin="round"/>
<path d="M1 12H3" stroke="url(#paint5_linear_233_608)" stroke-width="2" stroke-linecap="round" stroke-linejoin="round"/>
<path d="M21 12H23" stroke="url(#paint6_linear_233_608)" stroke-width="2" stroke-linecap="round" stroke-linejoin="round"/>
<path d="M4.2207 19.78L5.6407 18.36" stroke="url(#paint7_linear_233_608)" stroke-width="2" stroke-linecap="round" stroke-linejoin="round"/>
<path d="M18.3594 5.64L19.7794 4.22" stroke="url(#paint8_linear_233_608)" stroke-width="2" stroke-linecap="round" stroke-linejoin="round"/>
</g>
<defs>
<linearGradient id="paint0_linear_233_608" x1="16.4231" y1="8.04167" x2="10.43" y2="16.3857" gradientUnits="userSpaceOnUse">
<stop stop-color="#94C6C5"/>
<stop offset="1" stop-color="#114183"/>
</linearGradient>
<linearGradient id="paint1_linear_233_608" x1="12.9423" y1="1.20833" x2="11.7561" y2="2.03409" gradientUnits="userSpaceOnUse">
<stop stop-color="#94C6C5"/>
<stop offset="1" stop-color="#114183"/>
</linearGradient>
<linearGradient id="paint2_linear_233_608" x1="12.9423" y1="21.2083" x2="11.7561" y2="22.0341" gradientUnits="userSpaceOnUse">
<stop stop-color="#94C6C5"/>
<stop offset="1" stop-color="#114183"/>
</linearGradient>
<linearGradient id="paint3_linear_233_608" x1="5.55878" y1="4.36792" x2="4.70776" y2="5.55278" gradientUnits="userSpaceOnUse">
<stop stop-color="#94C6C5"/>
<stop offset="1" stop-color="#114183"/>
</linearGradient>
<linearGradient id="paint4_linear_233_608" x1="19.6975" y1="18.5079" x2="18.8464" y2="19.6928" gradientUnits="userSpaceOnUse">
<stop stop-color="#94C6C5"/>
<stop offset="1" stop-color="#114183"/>
</linearGradient>
<linearGradient id="paint5_linear_233_608" x1="2.88462" y1="12.1042" x2="2.48227" y2="13.2245" gradientUnits="userSpaceOnUse">
<stop stop-color="#94C6C5"/>
<stop offset="1" stop-color="#114183"/>
</linearGradient>
<linearGradient id="paint6_linear_233_608" x1="22.8846" y1="12.1042" x2="22.4823" y2="13.2245" gradientUnits="userSpaceOnUse">
<stop stop-color="#94C6C5"/>
<stop offset="1" stop-color="#114183"/>
</linearGradient>
<linearGradient id="paint7_linear_233_608" x1="5.55878" y1="18.5079" x2="4.70776" y2="19.6928" gradientUnits="userSpaceOnUse">
<stop stop-color="#94C6C5"/>
<stop offset="1" stop-color="#114183"/>
</linearGradient>
<linearGradient id="paint8_linear_233_608" x1="19.6975" y1="4.36792" x2="18.8464" y2="5.55278" gradientUnits="userSpaceOnUse">
<stop stop-color="#94C6C5"/>
<stop offset="1" stop-color="#114183"/>
</linearGradient>
<clipPath id="clip0_233_608">
<rect width="24" height="24" fill="white"/>
</clipPath>
</defs>
</svg>
