<svg width="72" height="72" viewBox="0 0 72 72" fill="none" xmlns="http://www.w3.org/2000/svg">
<circle cx="36" cy="36" r="34" stroke="url(#paint0_linear_340_767)" stroke-width="4"/>
<path d="M44 45V43C44 41.9391 43.5786 40.9217 42.8284 40.1716C42.0783 39.4214 41.0609 39 40 39H32C30.9391 39 29.9217 39.4214 29.1716 40.1716C28.4214 40.9217 28 41.9391 28 43V45" fill="url(#paint1_linear_340_767)"/>
<path d="M44 45V43C44 41.9391 43.5786 40.9217 42.8284 40.1716C42.0783 39.4214 41.0609 39 40 39H32C30.9391 39 29.9217 39.4214 29.1716 40.1716C28.4214 40.9217 28 41.9391 28 43V45" stroke="url(#paint2_linear_340_767)" stroke-linejoin="round"/>
<path d="M36 35C38.2091 35 40 33.2091 40 31C40 28.7909 38.2091 27 36 27C33.7909 27 32 28.7909 32 31C32 33.2091 33.7909 35 36 35Z" fill="url(#paint3_linear_340_767)" stroke="url(#paint4_linear_340_767)" stroke-linecap="round" stroke-linejoin="round"/>
<defs>
<linearGradient id="paint0_linear_340_767" x1="67.8462" y1="7.5" x2="24.6961" y2="67.5773" gradientUnits="userSpaceOnUse">
<stop stop-color="#94C6C5"/>
<stop offset="1" stop-color="#114183"/>
</linearGradient>
<linearGradient id="paint1_linear_340_767" x1="43.0769" y1="39.625" x2="41.1711" y2="46.7008" gradientUnits="userSpaceOnUse">
<stop stop-color="#94C6C5"/>
<stop offset="1" stop-color="#114183"/>
</linearGradient>
<linearGradient id="paint2_linear_340_767" x1="43.0769" y1="39.625" x2="41.1711" y2="46.7008" gradientUnits="userSpaceOnUse">
<stop stop-color="#94C6C5"/>
<stop offset="1" stop-color="#114183"/>
</linearGradient>
<linearGradient id="paint3_linear_340_767" x1="39.5385" y1="27.8333" x2="34.744" y2="34.5086" gradientUnits="userSpaceOnUse">
<stop stop-color="#94C6C5"/>
<stop offset="1" stop-color="#114183"/>
</linearGradient>
<linearGradient id="paint4_linear_340_767" x1="39.5385" y1="27.8333" x2="34.744" y2="34.5086" gradientUnits="userSpaceOnUse">
<stop stop-color="#94C6C5"/>
<stop offset="1" stop-color="#114183"/>
</linearGradient>
</defs>
</svg>
